<?xml version="1.0" encoding="UTF-8" standalone="no"?>
<!-- Generator: Adobe Illustrator 26.1.0, SVG Export Plug-In . SVG Version: 6.00 Build 0)  -->

<svg
   version="1.1"
   id="Ebene_2"
   x="0px"
   y="0px"
   width="76.199997mm"
   height="128.5mm"
   viewBox="0 0 215.99999 364.252"
   xml:space="preserve"
   sodipodi:docname="glitch_traced.svg"
   inkscape:version="1.4.2 (f4327f4, 2025-05-13)"
   xmlns:inkscape="http://www.inkscape.org/namespaces/inkscape"
   xmlns:sodipodi="http://sodipodi.sourceforge.net/DTD/sodipodi-0.dtd"
   xmlns="http://www.w3.org/2000/svg"
   xmlns:svg="http://www.w3.org/2000/svg"><defs
   id="defs63"><rect
     x="159.02357"
     y="2.5815513"
     width="86.961403"
     height="64.760063"
     id="rect25970" /><rect
     x="221.57088"
     y="125.83219"
     width="44.476444"
     height="34.666546"
     id="rect13669" /><rect
     x="209.08119"
     y="97.803917"
     width="13.96485"
     height="14.825481"
     id="rect13663" /><rect
     x="162.85901"
     y="-36.289238"
     width="157.84343"
     height="22.422619"
     id="rect2022" /><rect
     x="159.38634"
     y="71.974197"
     width="99.199219"
     height="60.321796"
     id="rect818" /><rect
     x="221.57088"
     y="125.83219"
     width="44.476444"
     height="34.666546"
     id="rect13669-1" /><rect
     x="221.57088"
     y="125.83219"
     width="44.476444"
     height="34.666546"
     id="rect13669-1-4" /></defs><sodipodi:namedview
   id="namedview61"
   pagecolor="#ffffff"
   bordercolor="#666666"
   borderopacity="1.0"
   inkscape:pageshadow="2"
   inkscape:pageopacity="0.0"
   inkscape:pagecheckerboard="0"
   showgrid="false"
   inkscape:zoom="1.6947174"
   inkscape:cx="184.10149"
   inkscape:cy="202.39363"
   inkscape:window-width="1266"
   inkscape:window-height="1258"
   inkscape:window-x="1252"
   inkscape:window-y="3"
   inkscape:window-maximized="0"
   inkscape:current-layer="Ebene_2"
   inkscape:showpageshadow="2"
   inkscape:deskcolor="#d1d1d1"
   inkscape:document-units="mm"
   showguides="true" />
<style
   type="text/css"
   id="style2">
	.st0{fill:#F3EDE7;}
</style>
<path
   id="rect350"
   style="fill:#666666;stroke-width:0.725672"
   d="M 0,0 H 216 V 364.25198 H 0 Z" />
<text
   xml:space="preserve"
   id="text13661"
   style="font-size:14.6667px;line-height:1.25;font-family:Pilat;-inkscape-font-specification:Pilat;letter-spacing:0px;word-spacing:0px;white-space:pre;shape-inside:url(#rect13663);display:inline"
   transform="scale(0.75000002)" /><path
   id="rect2-9-9"
   style="fill:#000000;stroke-width:0.283465"
   transform="scale(1,-1)"
   d="M 18.191376,-162.31831 H 197.83984 c 2.493,0 4.5,2.007 4.5,4.5 v 61.094143 c 0,2.493 -2.007,4.5 -4.5,4.5 H 18.191376 c -2.493,0 -4.5,-2.007 -4.5,-4.5 v -61.094143 c 0,-2.493 2.007,-4.5 4.5,-4.5 z" /><path
   d="m 61.632878,13.056084 h -0.224742 q -0.539383,-0.01498 -0.854023,-0.284674 -0.314639,-0.284675 -0.314639,-0.764126 0,-0.464469 0.314639,-0.749143 0.329623,-0.299657 0.854023,-0.299657 h 0.224742 2.037669 0.254709 q 1.333474,0.02996 1.333474,1.333474 v 0.269692 1.243576 q 0,0.479452 -0.164811,0.928937 -0.149829,0.434504 -0.449486,0.779109 -0.269692,0.31464 -0.659246,0.569348 -0.374571,0.254709 -0.839039,0.449486 -0.449486,0.179795 -0.958904,0.284675 -0.509417,0.104881 -1.003851,0.104881 -1.063783,0 -2.022685,-0.404537 -0.94392,-0.419521 -1.648115,-1.108731 -0.704194,-0.704196 -1.123714,-1.633132 -0.404537,-0.94392 -0.404537,-2.007703 0,-1.063783 0.404537,-1.99272 0.404538,-0.94392 1.108732,-1.633131 0.704194,-0.704194 1.63313,-1.108731 0.943921,-0.404538 2.022687,-0.404538 0.719176,0 1.42337,0.20976 0.704195,0.20976 1.333475,0.599315 0.41952,0.269691 0.584332,0.539383 0.179793,0.254708 0.179793,0.599314 0,0.479451 -0.329622,0.809074 -0.314641,0.31464 -0.794091,0.31464 -0.119864,0 -0.194778,0 -0.05992,-0.01498 -0.149828,-0.04495 -0.07492,-0.04495 -0.20976,-0.119864 Q 62.861473,9.460201 62.63673,9.310368 62.337073,9.100608 61.947519,8.995728 61.557965,8.875866 61.16841,8.875866 q -0.599314,0 -1.123714,0.239725 -0.5244,0.224743 -0.928937,0.614297 -0.389555,0.389555 -0.614297,0.928938 -0.224743,0.5244 -0.224743,1.108731 0,0.614297 0.239726,1.15368 0.239726,0.539383 0.659245,0.94392 0.419521,0.389554 0.988869,0.614297 0.584332,0.224742 1.243577,0.224742 0.569348,0 0.958903,-0.179793 0.389554,-0.179795 0.554365,-0.509417 0.119864,-0.239726 0.119864,-0.794092 v -0.164811 z m 10.353142,1.618148 h 0.239726 q 0.524399,0.01498 0.83904,0.299657 0.314639,0.269691 0.314639,0.749143 0,0.479451 -0.314639,0.764125 -0.314641,0.284675 -0.83904,0.284675 H 71.98602 68.554945 68.285254 Q 66.95178,16.741866 66.95178,15.438358 V 15.168667 8.216621 7.961913 Q 66.96676,7.377581 67.266421,7.032976 67.58106,6.68837 68.10546,6.68837 q 0.5244,0 0.824057,0.359588 0.31464,0.344606 0.31464,0.913955 v 0.254708 6.457611 z m 4.989303,0.659246 v 0.254708 q 0,0.584332 -0.31464,0.94392 -0.299657,0.344606 -0.824057,0.344606 -0.5244,0 -0.83904,-0.359588 -0.31464,-0.359589 -0.31464,-0.928938 V 15.333478 8.216621 7.961913 q 0.01498,-0.584332 0.31464,-0.928937 0.31464,-0.344606 0.83904,-0.344606 0.5244,0 0.824057,0.359588 0.31464,0.344606 0.31464,0.913955 v 0.254708 z m 6.427633,0 v 0.254708 q -0.01498,0.584332 -0.329624,0.94392 -0.299657,0.344606 -0.824056,0.344606 -0.509418,0 -0.824058,-0.359588 -0.31464,-0.359589 -0.31464,-0.928938 V 15.333478 8.875867 H 79.477447 79.252704 Q 78.713321,8.860887 78.398682,8.591193 78.084041,8.306518 78.084041,7.827067 q 0,-0.464469 0.314641,-0.749143 0.329622,-0.299657 0.854022,-0.299657 h 0.224743 5.543657 0.239726 q 0.524399,0.01498 0.83904,0.299657 0.329622,0.269691 0.329622,0.749143 0,0.479451 -0.329622,0.764126 -0.314641,0.284674 -0.83904,0.284674 h -0.239726 -1.618148 z m 3.476011,-3.56592 q 0,-1.063783 0.404537,-1.99272 0.404537,-0.94392 1.108731,-1.633131 0.704194,-0.704194 1.633131,-1.108731 0.943919,-0.404538 2.007703,-0.404538 1.797943,0 3.266262,1.198629 0.434503,0.359588 0.614297,0.644263 0.194777,0.284674 0.194777,0.62928 0,0.464468 -0.329622,0.794091 -0.314641,0.31464 -0.794091,0.31464 -0.434504,0 -0.839041,-0.359589 L 93.905925,9.62501 Q 93.531355,9.280404 93.03692,9.10061 92.542486,8.905833 92.018085,8.905833 q -0.58433,0 -1.108731,0.224742 -0.524399,0.224743 -0.913954,0.62928 -0.374572,0.389554 -0.599314,0.913955 -0.224743,0.524399 -0.224743,1.108731 0,0.584332 0.224743,1.108731 0.224742,0.5244 0.614297,0.913954 0.404537,0.389554 0.928937,0.614298 0.5244,0.224742 1.108732,0.224742 0.479451,0 0.973885,-0.164811 0.494434,-0.179795 0.794091,-0.449486 l 0.404537,-0.374572 q 0.374572,-0.359588 0.854024,-0.359588 0.464468,0 0.79409,0.329623 0.329624,0.329622 0.329624,0.794092 0,0.479451 -0.539383,1.018834 -0.689212,0.689211 -1.663097,1.093748 -0.958903,0.389555 -1.947771,0.389555 -1.063783,0 -2.007703,-0.404537 -0.928938,-0.419521 -1.633132,-1.108732 -0.704194,-0.704195 -1.123713,-1.633131 -0.404537,-0.94392 -0.404537,-2.007703 z M 103.50995,10.643844 V 8.216621 7.961913 q 0,-0.584332 0.29966,-0.928937 0.31464,-0.344606 0.83903,-0.344606 0.52441,0 0.83905,0.359588 0.31463,0.344606 0.31463,0.913955 v 0.254708 7.116857 0.254708 q -0.0299,0.584332 -0.32961,0.94392 -0.29966,0.344606 -0.82407,0.344606 -0.52439,0 -0.83903,-0.359588 -0.29966,-0.359589 -0.29966,-0.928938 v -0.254708 -2.592035 h -3.730731 v 2.592035 0.254708 q 0,0.584332 -0.314643,0.94392 -0.299653,0.344606 -0.824053,0.344606 -0.5244,0 -0.839039,-0.359588 -0.314641,-0.359589 -0.314641,-0.928938 V 15.333478 8.216621 7.961913 q 0.01498,-0.584332 0.314641,-0.928937 0.314639,-0.344606 0.839039,-0.344606 0.5244,0 0.824053,0.359588 0.314643,0.344606 0.314643,0.913955 v 0.254708 2.427223 z m 11.43192,-4.015406 q 0.64427,0 1.21362,0.149829 0.58433,0.149829 1.01884,0.41952 0.4345,0.254708 0.67423,0.614297 0.2547,0.344606 0.2547,0.749143 0,0.434503 -0.29966,0.749143 -0.28467,0.31464 -0.70419,0.31464 -0.29965,0 -0.56935,-0.194777 -0.0299,-0.01498 -0.16481,-0.119863 -0.13484,-0.119863 -0.3446,-0.284675 -0.59932,-0.479451 -1.16866,-0.479451 -0.46447,0 -0.7941,0.269691 -0.32962,0.269692 -0.32962,0.644263 0,0.374572 0.25471,0.584331 0.26968,0.20976 0.95889,0.374572 0.65925,0.164811 1.1387,0.329622 0.47945,0.149829 0.85403,0.329624 0.79409,0.374571 1.19863,1.033817 0.41952,0.659246 0.41952,1.528251 0,0.73416 -0.2697,1.333474 -0.2547,0.599315 -0.74914,1.033818 -0.47945,0.434502 -1.15368,0.674228 -0.65924,0.239726 -1.46832,0.239726 -0.73415,0 -1.40838,-0.194778 -0.65925,-0.194777 -1.16867,-0.5244 -0.49444,-0.344605 -0.79409,-0.779108 -0.29966,-0.449486 -0.29966,-0.928938 0,-0.224742 0.0749,-0.419519 0.0899,-0.194777 0.22474,-0.344606 0.14983,-0.149828 0.32962,-0.239726 0.19477,-0.0899 0.40454,-0.0899 0.31464,0 0.58433,0.134846 0.2697,0.119862 0.64426,0.449485 0.43451,0.404537 0.80908,0.584332 0.37457,0.179794 0.76413,0.179794 0.50941,0 0.83904,-0.299657 0.3446,-0.31464 0.3446,-0.779108 0,-0.389555 -0.28468,-0.644263 -0.26969,-0.269691 -0.88398,-0.449486 l -0.98887,-0.284674 q -1.1387,-0.329623 -1.70805,-0.73416 -0.44949,-0.299657 -0.68921,-0.809075 -0.23973,-0.524399 -0.23973,-1.183645 0,-0.644263 0.25471,-1.183646 0.25472,-0.539382 0.7042,-0.928937 0.46447,-0.389554 1.10873,-0.599314 0.64426,-0.224743 1.40838,-0.224743 z m 9.37928,8.70504 v 0.254708 q -0.015,0.584332 -0.32963,0.94392 -0.29965,0.344606 -0.82405,0.344606 -0.50941,0 -0.82406,-0.359588 -0.31464,-0.359589 -0.31464,-0.928938 V 15.333478 8.875867 h -1.63313 -0.22474 q -0.53938,-0.01498 -0.85402,-0.284674 -0.31464,-0.284675 -0.31464,-0.764126 0,-0.464469 0.31464,-0.749143 0.32962,-0.299657 0.85402,-0.299657 h 0.22474 5.54366 0.23972 q 0.52441,0.01498 0.83905,0.299657 0.32962,0.269691 0.32962,0.749143 0,0.479451 -0.32962,0.764126 -0.31464,0.284674 -0.83905,0.284674 h -0.23972 -1.61815 z m 8.6451,-6.427645 q -0.58433,0 -1.12372,0.239725 -0.52439,0.224743 -0.91396,0.614297 -0.38955,0.389554 -0.62927,0.928937 -0.22474,0.524401 -0.22474,1.108731 0,0.584332 0.22474,1.108733 0.22474,0.524399 0.61429,0.913954 0.40455,0.389554 0.92894,0.614296 0.5244,0.224744 1.12372,0.224744 0.59931,0 1.10873,-0.224744 0.5244,-0.224742 0.91396,-0.614296 0.38955,-0.389555 0.61429,-0.898972 0.22474,-0.5244 0.22474,-1.123715 0,-0.599314 -0.22474,-1.123713 -0.22474,-0.524401 -0.61429,-0.913955 -0.38956,-0.389554 -0.91396,-0.614297 -0.5244,-0.239725 -1.10873,-0.239725 z m -0.0299,-2.277395 q 0.98886,0 1.94777,0.404538 0.9589,0.404537 1.72303,1.138697 0.73415,0.704194 1.1237,1.648114 0.38957,0.928936 0.38957,1.977736 0,1.063784 -0.40455,1.99272 -0.40453,0.928938 -1.10872,1.633132 -0.70419,0.689212 -1.64812,1.093749 -0.92894,0.404537 -1.99272,0.404537 -1.07876,0 -2.02269,-0.404537 -0.92894,-0.404537 -1.63313,-1.093749 -0.70419,-0.704194 -1.10872,-1.633132 -0.40455,-0.94392 -0.40455,-2.007702 0,-1.063783 0.40455,-2.007703 0.40453,-0.94392 1.09374,-1.633131 0.70419,-0.704194 1.63313,-1.108731 0.94393,-0.404538 2.00771,-0.404538 z m 9.88868,5.303931 q 0.50943,0 0.77912,-0.04494 0.28468,-0.05994 0.49443,-0.179794 0.32962,-0.20976 0.50942,-0.539383 0.19478,-0.344605 0.19478,-0.73416 0,-0.434503 -0.23973,-0.794091 -0.22474,-0.359589 -0.6143,-0.554366 -0.10482,-0.04495 -0.20976,-0.07492 -0.0899,-0.02997 -0.20975,-0.04495 -0.11987,-0.01498 -0.29966,-0.01498 -0.1798,-0.01498 -0.44949,-0.01498 h -0.82405 v 2.996572 z m -0.86899,3.401109 v 0.254708 q 0,0.584332 -0.31465,0.94392 -0.29965,0.344606 -0.82405,0.344606 -0.52441,0 -0.83904,-0.359588 -0.31464,-0.359589 -0.31464,-0.928938 V 15.333478 8.381433 8.111741 q 0.0299,-1.333474 1.33348,-1.333474 h 0.26968 1.54323 q 0.884,0 1.46833,0.149829 0.58433,0.134845 1.06378,0.449485 0.77911,0.509417 1.22859,1.333474 0.44949,0.809075 0.44949,1.708046 0,1.0488 -0.59931,1.812926 -0.58433,0.764125 -1.67809,1.153679 l 1.70805,1.243578 q 0.62928,0.479451 0.62928,1.063782 0,0.479452 -0.32963,0.824058 -0.31463,0.344605 -0.79408,0.344605 -0.37458,0 -0.79409,-0.329623 l -3.20633,-2.621999 z m 13.18489,-7.641257 q 0.19478,-0.5244 0.44949,-0.764125 0.26969,-0.239726 0.65925,-0.239726 0.41951,0 0.70419,0.269691 0.29965,0.254709 0.41951,0.73416 l 1.81293,7.371566 0.0599,0.239725 q 0.045,0.224743 0.045,0.449485 0,0.449486 -0.32963,0.779109 -0.32962,0.31464 -0.79409,0.31464 -0.4345,0 -0.73415,-0.254709 -0.29967,-0.254708 -0.41953,-0.734159 l -0.06,-0.254709 -0.97389,-4.000423 -1.33346,4.285097 -0.0749,0.20976 q -0.11986,0.359589 -0.38955,0.569349 -0.25472,0.194777 -0.58433,0.194777 -0.74915,0 -1.04881,-0.973886 l -1.31849,-4.285097 -0.94392,4.000423 -0.0599,0.239726 q -0.25471,1.003851 -1.15368,1.003851 -0.47945,0 -0.80908,-0.31464 -0.31463,-0.329623 -0.31463,-0.809074 0,-0.0899 0,-0.194777 0.015,-0.119863 0.045,-0.20976 l 0.06,-0.239726 1.753,-7.431496 q 0.10482,-0.449486 0.38955,-0.704195 0.29966,-0.254708 0.68921,-0.254708 0.74915,0 1.07876,0.869005 l 1.61815,4.449909 z"
   id="text3"
   style="font-size:13.6213px;font-family:'Frankfurter Medium';-inkscape-font-specification:'Frankfurter Medium, ';fill:#ffffff;stroke-width:1.24857"
   aria-label="GLITCH STORM" /><path
   id="rect2-9-94"
   style="fill:#d2d2d3;fill-opacity:1;stroke:none;stroke-width:0.221349"
   d="m 21.972783,323.05965 c -1.94671,0 -3.51392,1.5672 -3.51392,3.51392 v 17.36024 H 202.38687 v -17.36024 c 0,-1.94672 -1.56721,-3.51392 -3.51392,-3.51392 z"
   sodipodi:nodetypes="ssccsss" /><path
   d="m 62.852633,351.45064 -0.50678,0.33501 q -0.13742,-0.26629 -0.33499,-0.42948 -0.2577,-0.19755 -0.64422,-0.19755 -0.42948,0 -0.69576,0.2491 -0.26628,0.24053 -0.26628,0.63563 0,0.29205 0.21475,0.4982 0.17178,0.17178 0.60127,0.36076 l 0.54973,0.24052 q 0.60986,0.26629 0.88473,0.54114 0.4123,0.41231 0.4123,1.03934 0,0.78165 -0.51538,1.27125 -0.51537,0.48961 -1.29702,0.48961 -0.77306,0 -1.24549,-0.46384 -0.38653,-0.37794 -0.53255,-1.01356 l 0.61845,-0.17178 q 0.0601,0.42947 0.34358,0.73011 0.31781,0.31781 0.8246,0.31781 0.54973,0 0.85037,-0.3264 0.30063,-0.33499 0.30063,-0.80742 0,-0.4123 -0.28346,-0.66999 -0.16319,-0.1546 -0.68717,-0.39511 l -0.51537,-0.24052 q -0.52397,-0.24053 -0.76447,-0.47243 -0.39513,-0.37794 -0.39513,-0.93627 0,-0.66139 0.44666,-1.0651 0.45525,-0.4123 1.15959,-0.4123 0.53256,0 0.91909,0.2577 0.35217,0.23193 0.55832,0.63563 z m 1.38292,-0.79882 h 1.03934 q 0.97921,0 1.44304,0.40371 0.52397,0.44665 0.52397,1.2283 0,0.66999 -0.45525,1.14242 -0.44666,0.46384 -1.35715,0.46384 h -0.55833 v 2.49097 h -0.63562 z m 0.63562,0.60127 v 2.03573 h 0.52397 q 0.56691,0 0.88473,-0.27488 0.3264,-0.27488 0.3264,-0.76447 0,-0.99639 -1.26267,-0.99639 z m 3.91685,-0.60127 v 2.32777 h 2.93763 v -2.32777 h 0.63563 v 5.72924 h -0.63563 v -2.8002 h -2.93763 v 2.8002 h -0.63563 v -5.72924 z m 8.02265,0 v 0.60127 h -2.33636 v 1.70073 h 2.26765 v 0.60127 h -2.26765 v 2.2247 h 2.33636 v 0.60127 h -2.97199 v -5.72924 z m 1.16819,0 h 0.91909 q 0.92767,0 1.39151,0.31781 0.62704,0.42089 0.62704,1.27126 0,0.66139 -0.40371,1.09946 -0.39513,0.43807 -1.03934,0.48102 l 1.82099,2.55969 h -0.77306 l -1.74369,-2.50816 h -0.16319 v 2.50816 h -0.63563 z m 0.63563,0.60127 v 2.0529 h 0.40371 q 0.59268,0 0.92767,-0.27487 0.335,-0.27488 0.335,-0.77306 0,-0.58409 -0.45525,-0.84177 -0.29204,-0.1632 -0.8246,-0.1632 z m 3.67634,-0.60127 h 0.63563 v 5.72924 h -0.63563 z m 6.49371,0.47242 v 0.79025 q -0.34358,-0.34359 -0.74729,-0.53255 -0.4896,-0.22335 -0.9878,-0.22335 -0.9878,0 -1.6492,0.69576 -0.6528,0.68716 -0.6528,1.69214 0,1.08229 0.71293,1.70932 0.72152,0.62704 1.59766,0.62704 0.54973,0 1.0651,-0.26629 0.36077,-0.18036 0.6614,-0.48101 v 0.79024 q -0.78165,0.55832 -1.7265,0.55832 -1.27126,0 -2.12162,-0.85036 -0.84178,-0.85038 -0.84178,-2.09586 0,-1.27985 0.85036,-2.13021 0.85896,-0.85037 2.1474,-0.85037 0.94485,0 1.69214,0.56691 z m 4.99913,5.25682 -0.66999,-1.61484 h -2.43943 l -0.68717,1.61484 h -0.70435 l 2.637,-6.00411 2.56829,6.00411 z m -2.86033,-2.21611 h 1.94124 l -0.96203,-2.29341 z m 4.37208,-3.51313 h 0.63564 v 5.12797 h 1.58047 v 0.60127 h -2.21611 z m 8.142907,0.79882 -0.50678,0.33501 q -0.13742,-0.26629 -0.33499,-0.42948 -0.2577,-0.19755 -0.64422,-0.19755 -0.42948,0 -0.69576,0.2491 -0.26628,0.24053 -0.26628,0.63563 0,0.29205 0.21475,0.4982 0.17178,0.17178 0.60127,0.36076 l 0.54973,0.24052 q 0.60986,0.26629 0.88473,0.54114 0.4123,0.41231 0.4123,1.03934 0,0.78165 -0.51538,1.27125 -0.51537,0.48961 -1.29702,0.48961 -0.77306,0 -1.24549,-0.46384 -0.38653,-0.37794 -0.53256,-1.01356 l 0.61845,-0.17178 q 0.0601,0.42947 0.34359,0.73011 0.31782,0.31781 0.8246,0.31781 0.54973,0 0.85036,-0.3264 0.30064,-0.33499 0.30064,-0.80742 0,-0.4123 -0.28346,-0.66999 -0.16319,-0.1546 -0.68717,-0.39511 l -0.51537,-0.24052 q -0.52397,-0.24053 -0.76447,-0.47243 -0.39512,-0.37794 -0.39512,-0.93627 0,-0.66139 0.44665,-1.0651 0.45525,-0.4123 1.15959,-0.4123 0.53255,0 0.91909,0.2577 0.35217,0.23193 0.55832,0.63563 z m 6.16732,4.18313 q -0.85896,0.85036 -2.11303,0.85036 -1.25408,0 -2.12163,-0.85036 -0.85895,-0.85037 -0.85895,-2.11304 0,-1.27125 0.86754,-2.11303 0.86754,-0.85037 2.11304,-0.85037 1.24549,0 2.11303,0.85037 0.86754,0.84178 0.86754,2.11303 0,1.26267 -0.86754,2.11304 z m -0.46383,-3.788 q -0.67858,-0.68717 -1.6492,-0.68717 -0.97063,0 -1.6492,0.68717 -0.67858,0.68716 -0.67858,1.67496 0,0.98781 0.67858,1.67497 0.67857,0.68717 1.6492,0.68717 0.97062,0 1.6492,-0.68717 0.67857,-0.68716 0.67857,-1.67497 0,-0.9878 -0.67857,-1.67496 z m 3.13518,-1.19395 v 3.51313 q 0,0.3264 0.009,0.50679 0.0173,0.18036 0.12025,0.44666 0.11165,0.25769 0.3264,0.43806 0.38654,0.32641 0.94486,0.32641 0.55831,0 0.94485,-0.32641 0.21475,-0.18037 0.31781,-0.43806 0.11165,-0.26629 0.12025,-0.44666 0.0173,-0.1804 0.0173,-0.50679 v -3.51313 h 0.63562 v 3.68492 q 0,0.87614 -0.36075,1.37433 -0.26629,0.36077 -0.70435,0.56692 -0.42947,0.20613 -0.97062,0.20613 -0.54114,0 -0.97921,-0.20613 -0.42948,-0.20617 -0.69576,-0.56692 -0.36076,-0.49819 -0.36076,-1.37433 v -3.68492 z m 5.54887,5.72924 h -0.63562 v -5.96975 l 4.46657,4.68132 v -4.44081 h 0.63563 v 5.98693 l -4.46658,-4.68132 z m 5.94398,0 v -5.72924 h 1.16818 q 1.3228,0 2.11304,0.66998 0.97921,0.81602 0.97921,2.19893 0,1.33998 -1.00498,2.19894 -0.4123,0.35217 -0.88473,0.50678 -0.47242,0.1546 -1.21113,0.1546 z m 0.63563,-5.12797 v 4.5267 h 0.55832 q 1.02216,0 1.64061,-0.51537 0.77306,-0.65281 0.77306,-1.74369 0,-1.03074 -0.6614,-1.64919 -0.66139,-0.61845 -1.75227,-0.61845 z m 9.86083,0.19755 -0.50679,0.33499 q -0.13743,-0.26629 -0.33499,-0.42948 -0.2577,-0.19755 -0.64422,-0.19755 -0.42948,0 -0.69575,0.24911 -0.26629,0.24052 -0.26629,0.63564 0,0.29204 0.21475,0.49819 0.17178,0.17177 0.60127,0.36076 l 0.54973,0.24052 q 0.60986,0.26628 0.88473,0.54114 0.4123,0.4123 0.4123,1.03934 0,0.78165 -0.51538,1.27126 -0.51537,0.4896 -1.29702,0.4896 -0.77306,0 -1.24549,-0.46383 -0.38653,-0.37795 -0.53255,-1.01358 l 0.61844,-0.17178 q 0.0602,0.42948 0.34359,0.73011 0.31781,0.31782 0.8246,0.31782 0.54973,0 0.85036,-0.3264 0.30064,-0.33499 0.30064,-0.80742 0,-0.4123 -0.28346,-0.66999 -0.1632,-0.1546 -0.68717,-0.39512 l -0.51538,-0.24052 q -0.52396,-0.24051 -0.76446,-0.47242 -0.39513,-0.37794 -0.39513,-0.93626 0,-0.6614 0.44666,-1.06511 0.45525,-0.4123 1.15959,-0.4123 0.53255,0 0.91909,0.2577 0.35217,0.23193 0.55832,0.63562 z m 6.16731,4.18311 q -0.85896,0.85038 -2.11304,0.85038 -1.25408,0 -2.12162,-0.85038 -0.85896,-0.85036 -0.85896,-2.11302 0,-1.27126 0.86755,-2.11304 0.86754,-0.85036 2.11303,-0.85036 1.24549,0 2.11304,0.85036 0.86754,0.84178 0.86754,2.11304 0,1.26266 -0.86754,2.11302 z m -0.46384,-3.78799 q -0.67858,-0.68717 -1.6492,-0.68717 -0.97062,0 -1.6492,0.68717 -0.67857,0.68716 -0.67857,1.67497 0,0.98779 0.67857,1.67496 0.67858,0.68716 1.6492,0.68716 0.97062,0 1.6492,-0.68716 0.67857,-0.68717 0.67857,-1.67496 0,-0.98781 -0.67857,-1.67497 z m 6.88024,-0.72152 v 0.79023 q -0.34359,-0.34358 -0.74729,-0.53255 -0.48961,-0.22334 -0.9878,-0.22334 -0.9878,0 -1.6492,0.69575 -0.65281,0.68717 -0.65281,1.69215 0,1.08229 0.71294,1.70933 0.72152,0.62703 1.59766,0.62703 0.54973,0 1.0651,-0.26628 0.36077,-0.18037 0.6614,-0.48102 v 0.79024 q -0.78165,0.55832 -1.7265,0.55832 -1.27126,0 -2.12163,-0.85037 -0.84177,-0.85036 -0.84177,-2.09585 0,-1.27985 0.85036,-2.13021 0.85896,-0.85037 2.14739,-0.85037 0.94486,0 1.69215,0.56691 z m 1.16818,-0.47242 h 0.63563 v 5.72924 h -0.63563 z m 5.08502,0 v 0.60127 h -2.33636 v 1.70073 h 2.26765 v 0.60127 h -2.26765 v 2.2247 h 2.33636 v 0.60127 h -2.97198 v -5.72924 z m 3.9684,0.60127 h -1.39152 v 5.12797 h -0.63563 v -5.12797 h -1.3915 v -0.60127 h 3.41865 z m 2.25046,5.12797 v -2.4652 l -1.88112,-3.26404 h 0.73871 l 1.46023,2.55969 1.4774,-2.55969 h 0.7387 l -1.89829,3.26404 v 2.4652 z"
   id="text16"
   style="font-size:11px;font-family:'Futura PT';-inkscape-font-specification:'Futura PT';fill:#ffffff;stroke-width:0.585652"
   aria-label="SPHERICAL SOUND SOCIETY" /><path
   d="m 19.715275,289.49957 q 0,-0.45 0.171,-0.855 0.18,-0.405 0.477,-0.702 0.306,-0.306 0.702,-0.477 0.405,-0.18 0.855,-0.18 0.342,0 0.675,0.108 0.342,0.108 0.621,0.297 0.243,0.171 0.333,0.315 0.099,0.135 0.099,0.324 0,0.252 -0.18,0.423 -0.171,0.171 -0.432,0.171 -0.108,0 -0.18,-0.027 -0.072,-0.027 -0.198,-0.126 -0.198,-0.153 -0.351,-0.216 -0.144,-0.063 -0.333,-0.063 -0.216,0 -0.414,0.081 -0.189,0.081 -0.333,0.225 -0.135,0.135 -0.216,0.324 -0.081,0.18 -0.081,0.387 0,0.216 0.081,0.405 0.081,0.18 0.216,0.315 0.144,0.135 0.324,0.216 0.189,0.081 0.405,0.081 0.279,0 0.459,-0.117 0.027,-0.018 0.099,-0.072 0.081,-0.054 0.207,-0.144 0.099,-0.072 0.18,-0.099 0.09,-0.036 0.189,-0.036 0.252,0 0.423,0.18 0.18,0.171 0.18,0.423 0,0.198 -0.153,0.387 -0.153,0.189 -0.405,0.342 -0.243,0.153 -0.558,0.252 -0.306,0.09 -0.63,0.09 -0.459,0 -0.873,-0.171 -0.405,-0.18 -0.711,-0.486 -0.297,-0.306 -0.477,-0.711 -0.171,-0.405 -0.171,-0.864 z m 4.428003,-0.864 q 0,-0.639 0.243,-1.197 0.243,-0.567 0.666,-0.981 0.423,-0.423 0.981,-0.666 0.567,-0.243 1.206,-0.243 1.08,0 1.962,0.72 0.261,0.216 0.369,0.387 0.117,0.171 0.117,0.378 0,0.279 -0.198,0.477 -0.189,0.189 -0.477,0.189 -0.261,0 -0.504,-0.216 l -0.144,-0.135 q -0.225,-0.207 -0.522,-0.315 -0.297,-0.117 -0.612,-0.117 -0.351,0 -0.666,0.135 -0.315,0.135 -0.549,0.378 -0.225,0.234 -0.36,0.549 -0.135,0.315 -0.135,0.666 0,0.351 0.135,0.666 0.135,0.315 0.369,0.549 0.243,0.234 0.558,0.369 0.315,0.135 0.666,0.135 0.288,0 0.585,-0.099 0.297,-0.108 0.477,-0.27 l 0.243,-0.225 q 0.225,-0.216 0.513,-0.216 0.279,0 0.477,0.198 0.198,0.198 0.198,0.477 0,0.288 -0.324,0.612 -0.414,0.414 -0.999,0.657 -0.576,0.234 -1.17,0.234 -0.639,0 -1.206,-0.243 -0.558,-0.252 -0.981,-0.666 -0.423,-0.423 -0.675,-0.981 -0.243,-0.567 -0.243,-1.206 z m 9.396008,1.746 h 0.144 q 0.315,0.009 0.504,0.18 0.189,0.162 0.189,0.45 0,0.288 -0.189,0.459 -0.189,0.171 -0.504,0.171 h -0.144 -2.061 -0.162 q -0.801,-0.018 -0.801,-0.801 v -0.162 -4.176 -0.153 q 0.009,-0.351 0.189,-0.558 0.189,-0.207 0.504,-0.207 0.315,0 0.495,0.216 0.189,0.207 0.189,0.549 v 0.153 3.879 z m 4.338007,-3.465 q -0.351,0 -0.675,0.144 -0.315,0.135 -0.549,0.369 -0.234,0.234 -0.378,0.558 -0.135,0.315 -0.135,0.666 0,0.351 0.135,0.666 0.135,0.315 0.369,0.549 0.243,0.234 0.558,0.369 0.315,0.135 0.675,0.135 0.36,0 0.666,-0.135 0.315,-0.135 0.549,-0.369 0.234,-0.234 0.369,-0.54 0.135,-0.315 0.135,-0.675 0,-0.36 -0.135,-0.675 -0.135,-0.315 -0.369,-0.549 -0.234,-0.234 -0.549,-0.369 -0.315,-0.144 -0.666,-0.144 z m -0.018,-1.368 q 0.594,0 1.17,0.243 0.576,0.243 1.035,0.684 0.441,0.423 0.675,0.99 0.234,0.558 0.234,1.188 0,0.639 -0.243,1.197 -0.243,0.558 -0.666,0.981 -0.423,0.414 -0.99,0.657 -0.558,0.243 -1.197,0.243 -0.648,0 -1.215,-0.243 -0.558,-0.243 -0.981,-0.657 -0.423,-0.423 -0.666,-0.981 -0.243,-0.567 -0.243,-1.206 0,-0.639 0.243,-1.206 0.243,-0.567 0.657,-0.981 0.423,-0.423 0.981,-0.666 0.567,-0.243 1.206,-0.243 z m 3.654005,3.087 q 0,-0.639 0.243,-1.197 0.243,-0.567 0.666,-0.981 0.423,-0.423 0.981,-0.666 0.567,-0.243 1.206,-0.243 1.08,0 1.962,0.72 0.261,0.216 0.369,0.387 0.117,0.171 0.117,0.378 0,0.279 -0.198,0.477 -0.189,0.189 -0.477,0.189 -0.261,0 -0.504,-0.216 l -0.144,-0.135 q -0.225,-0.207 -0.522,-0.315 -0.297,-0.117 -0.612,-0.117 -0.351,0 -0.666,0.135 -0.315,0.135 -0.549,0.378 -0.225,0.234 -0.36,0.549 -0.135,0.315 -0.135,0.666 0,0.351 0.135,0.666 0.135,0.315 0.369,0.549 0.243,0.234 0.558,0.369 0.315,0.135 0.666,0.135 0.288,0 0.585,-0.099 0.297,-0.108 0.477,-0.27 l 0.243,-0.225 q 0.225,-0.216 0.513,-0.216 0.279,0 0.477,0.198 0.198,0.198 0.198,0.477 0,0.288 -0.324,0.612 -0.414,0.414 -0.999,0.657 -0.576,0.234 -1.17,0.234 -0.639,0 -1.206,-0.243 -0.558,-0.252 -0.981,-0.666 -0.423,-0.423 -0.675,-0.981 -0.243,-0.567 -0.243,-1.206 z m 10.980008,1.737 q 0.234,0.216 0.315,0.351 0.081,0.126 0.081,0.306 0,0.288 -0.207,0.495 -0.207,0.198 -0.495,0.198 -0.252,0 -0.513,-0.243 l -0.117,-0.108 -2.295,-2.16 v 1.566 0.153 q 0,0.351 -0.189,0.567 -0.18,0.207 -0.495,0.207 -0.315,0 -0.504,-0.216 -0.189,-0.216 -0.189,-0.558 v -0.153 -4.275 -0.153 q 0.009,-0.351 0.189,-0.558 0.189,-0.207 0.504,-0.207 0.315,0 0.495,0.216 0.189,0.207 0.189,0.549 v 0.153 1.431 l 2.016,-2.016 0.099,-0.108 q 0.261,-0.252 0.531,-0.252 0.288,0 0.486,0.207 0.207,0.198 0.207,0.486 0,0.153 -0.081,0.288 -0.081,0.135 -0.288,0.342 l -1.71,1.674 z"
   id="text4"
   style="font-size:9px;font-family:'Frankfurter Medium';-inkscape-font-specification:'Frankfurter Medium, ';fill:#666666;stroke-width:0.75"
   aria-label="cCLOCK" /><path
   d="m 23.53541,310.59888 -0.07031,0.82177 q -0.338378,-0.19775 -0.619628,-0.27246 -0.28125,-0.0791 -0.632813,-0.0791 -0.496582,0 -0.914062,0.1626 -0.413086,0.1582 -0.720704,0.46143 -0.307617,0.30322 -0.474609,0.7207 -0.166992,0.41308 -0.166992,0.91406 0,0.65918 0.298828,1.19531 0.303223,0.53174 0.830566,0.83496 0.531739,0.29883 1.186524,0.29883 0.61084,0 1.283203,-0.26806 l 0.06592,0.82617 q -0.351563,0.11426 -0.641602,0.1626 -0.285644,0.0439 -0.681152,0.0439 -0.944824,0 -1.6875,-0.36475 -0.738281,-0.36474 -1.155762,-1.05908 -0.41748,-0.69873 -0.41748,-1.65234 0,-0.87012 0.395508,-1.55567 0.399902,-0.68554 1.120605,-1.06787 0.725098,-0.38232 1.634766,-0.38232 0.786621,0 1.366699,0.25928 z m 1.911621,-0.22412 v 5.27343 h 2.535645 v 0.7295 h -3.392579 v -6.00293 z m 6.011719,-0.10987 q 0.905273,0 1.564453,0.3999 0.663574,0.39551 1.006348,1.10303 0.342773,0.70313 0.342773,1.6128 0,0.71191 -0.202148,1.29199 -0.197754,0.57568 -0.580079,0.98437 -0.377929,0.40869 -0.909668,0.62403 -0.531738,0.21533 -1.195312,0.21533 -0.900879,0 -1.564453,-0.3999 -0.663574,-0.4043 -1.010742,-1.11182 -0.342774,-0.71191 -0.342774,-1.604 0,-0.67237 0.19336,-1.23926 0.193359,-0.57129 0.5625,-0.98877 0.36914,-0.41748 0.914062,-0.65039 0.549316,-0.23731 1.22168,-0.23731 z m -0.0088,0.67676 q -0.575684,0 -1.028321,0.30762 -0.448242,0.30322 -0.694336,0.86133 -0.241699,0.55371 -0.241699,1.26123 0,0.52295 0.14502,0.98437 0.145019,0.46143 0.413086,0.79102 0.268066,0.32519 0.628418,0.50097 0.364746,0.17139 0.804199,0.17139 0.430664,0 0.791016,-0.17578 0.364746,-0.17578 0.632812,-0.50537 0.272461,-0.32959 0.413086,-0.76026 0.140625,-0.43505 0.140625,-0.97119 0,-0.5625 -0.140625,-1.01074 -0.140625,-0.45264 -0.413086,-0.78223 -0.268066,-0.32959 -0.637207,-0.50097 -0.369141,-0.17139 -0.812988,-0.17139 z m 8.305664,-0.34277 -0.07031,0.82177 q -0.338379,-0.19775 -0.619629,-0.27246 -0.28125,-0.0791 -0.632812,-0.0791 -0.496582,0 -0.914063,0.1626 -0.413086,0.1582 -0.720703,0.46143 -0.307617,0.30322 -0.474609,0.7207 -0.166992,0.41308 -0.166992,0.91406 0,0.65918 0.298828,1.19531 0.303222,0.53174 0.830566,0.83496 0.531738,0.29883 1.186524,0.29883 0.610839,0 1.283203,-0.26806 l 0.06592,0.82617 q -0.351563,0.11426 -0.641602,0.1626 -0.285644,0.0439 -0.681152,0.0439 -0.944824,0 -1.6875,-0.36475 -0.738281,-0.36474 -1.155762,-1.05908 -0.41748,-0.69873 -0.41748,-1.65234 0,-0.87012 0.395507,-1.55567 0.399903,-0.68554 1.120606,-1.06787 0.725098,-0.38232 1.634766,-0.38232 0.786621,0 1.366699,0.25928 z m 1.911621,-0.22412 v 2.0083 q 0,0.3164 -0.01758,0.7207 0.224121,-0.26807 0.492187,-0.54932 l 2.096192,-2.17968 h 1.155761 l -2.838867,2.84326 3.080567,3.15967 h -1.252442 l -2.175293,-2.32911 q -0.188965,-0.18896 -0.549316,-0.6416 0.0044,0.14942 0.0044,0.27246 0.0044,0.12305 0.0044,0.33838 v 2.35987 h -0.856934 v -6.00293 z"
   id="text5"
   style="font-size:9px;font-family:Frutiger;-inkscape-font-specification:Frutiger;fill:#ffffff;stroke-width:0.75"
   aria-label="CLOCK" /><path
   d="m 58.360607,310.37476 h 1.441406 q 0.540528,0 0.808594,0.0352 0.272461,0.0308 0.549317,0.12744 0.303222,0.10108 0.522949,0.30762 0.219726,0.20215 0.342773,0.49219 0.123047,0.29004 0.123047,0.61963 0,0.58008 -0.338379,0.94482 -0.338379,0.36035 -0.927246,0.46143 0.285645,0.13623 0.42627,0.29443 0.140625,0.15381 0.3208,0.53174 l 1.006348,2.18848 h -0.97998 l -0.773438,-1.80176 q -0.175781,-0.4043 -0.307617,-0.57569 -0.131836,-0.17578 -0.325195,-0.23291 -0.188965,-0.0615 -0.540528,-0.0615 h -0.492187 v 2.67188 h -0.856934 z m 0.856934,0.73828 v 1.85449 h 0.531738 q 1.520508,0 1.520508,-0.93604 0,-0.5625 -0.399903,-0.73828 -0.395507,-0.18017 -1.032714,-0.18017 z m 7.72998,-0.73828 v 0.73828 h -2.48291 v 1.7622 h 2.302734 v 0.73829 h -2.302734 v 2.03466 h 2.553223 v 0.7295 h -3.410157 v -6.00293 z m 4.21875,0.10986 -0.105469,0.75586 q -0.641601,-0.2461 -1.125,-0.2461 -0.325195,0 -0.571289,0.10547 -0.241699,0.10108 -0.377929,0.29004 -0.131836,0.18457 -0.131836,0.43506 0,0.39111 0.272461,0.59766 0.276855,0.20654 0.966797,0.56689 0.694336,0.35596 1.041503,0.7251 0.347168,0.36475 0.347168,0.97119 0,0.52734 -0.254882,0.94483 -0.254883,0.41748 -0.725098,0.6416 -0.46582,0.22412 -1.072266,0.22412 -0.716308,0 -1.366699,-0.23731 l 0.08789,-0.80859 q 0.663574,0.31641 1.177734,0.31641 0.364746,0 0.645996,-0.12305 0.285645,-0.12305 0.435059,-0.35156 0.153808,-0.23291 0.153808,-0.54493 0,-0.44824 -0.303222,-0.67675 -0.303223,-0.23291 -0.962403,-0.54932 -0.659179,-0.31641 -0.997558,-0.65478 -0.338379,-0.34278 -0.338379,-0.96241 0,-0.4834 0.23291,-0.85254 0.237305,-0.37353 0.667969,-0.58007 0.435058,-0.20655 0.988769,-0.20655 0.698731,0 1.313965,0.21973 z m 4.790039,-0.10986 v 0.73828 H 73.4734 v 1.7622 h 2.302734 v 0.73829 H 73.4734 v 2.03466 h 2.553223 v 0.7295 h -3.410156 v -6.00293 z m 5.334961,0 v 0.73828 h -1.880859 v 5.26465 h -0.852539 v -5.26465 h -1.92041 v -0.73828 z"
   id="text6"
   style="font-size:9px;font-family:Frutiger;-inkscape-font-specification:Frutiger;fill:#ffffff;stroke-width:0.75"
   aria-label="RESET" /><path
   d="m 101.21754,310.37476 v 5.27343 h 2.53565 v 0.7295 h -3.39258 v -6.00293 z m 6.80274,0 v 0.73828 h -2.48291 v 1.7622 h 2.30273 v 0.73829 h -2.30273 v 2.03466 h 2.55322 v 0.7295 h -3.41015 v -6.00293 z m 4.58789,0 v 0.73828 h -2.3291 v 1.78857 h 2.24121 v 0.72949 h -2.24121 v 2.74659 h -0.85694 v -6.00293 z m 5.08447,0 v 0.73828 h -1.88086 v 5.26465 h -0.85254 v -5.26465 h -1.92041 v -0.73828 z"
   id="text7"
   style="font-size:9px;font-family:Frutiger;-inkscape-font-specification:Frutiger;fill:#ffffff;stroke-width:0.75"
   aria-label="LEFT" /><path
   d="m 134.86061,310.37476 h 1.44141 q 0.54052,0 0.80859,0.0352 0.27246,0.0308 0.54932,0.12744 0.30322,0.10108 0.52295,0.30762 0.21972,0.20215 0.34277,0.49219 0.12305,0.29004 0.12305,0.61963 0,0.58008 -0.33838,0.94482 -0.33838,0.36035 -0.92725,0.46143 0.28565,0.13623 0.42627,0.29443 0.14063,0.15381 0.3208,0.53174 l 1.00635,2.18848 h -0.97998 l -0.77344,-1.80176 q -0.17578,-0.4043 -0.30762,-0.57569 -0.13183,-0.17578 -0.32519,-0.23291 -0.18897,-0.0615 -0.54053,-0.0615 h -0.49219 v 2.67188 h -0.85693 z m 0.85693,0.73828 v 1.85449 h 0.53174 q 1.52051,0 1.52051,-0.93604 0,-0.5625 -0.3999,-0.73828 -0.39551,-0.18017 -1.03272,-0.18017 z m 5.29981,-0.73828 v 6.00293 h -0.85693 v -6.00293 z m 6.1831,0.25048 -0.0571,0.83057 q -0.36036,-0.20215 -0.72071,-0.29443 -0.36035,-0.0923 -0.80859,-0.0923 -0.71192,0 -1.26123,0.29004 -0.54932,0.28565 -0.85254,0.80859 -0.29883,0.52295 -0.29883,1.17774 0,0.68555 0.30322,1.22607 0.30762,0.53614 0.86573,0.83057 0.5581,0.29004 1.27881,0.29004 0.37792,0 0.81298,-0.12305 v -1.74023 h -1.28759 v -0.7251 h 2.14013 v 3.04102 q -0.45263,0.14941 -0.86133,0.21533 -0.40429,0.0615 -0.85693,0.0615 -0.75146,0 -1.3623,-0.21094 -0.61084,-0.21093 -1.05469,-0.61963 -0.44385,-0.40869 -0.67236,-0.97558 -0.22413,-0.5669 -0.22413,-1.27881 0,-0.93604 0.43067,-1.61279 0.43506,-0.68116 1.17773,-1.03272 0.74707,-0.35156 1.66992,-0.35156 0.89649,0 1.63916,0.28564 z m 6.22706,-0.25048 v 6.00293 h -0.85694 v -2.75538 h -2.90478 v 2.75538 h -0.85694 v -6.00293 h 0.85694 v 2.51806 h 2.90478 v -2.51806 z m 5.47998,0 v 0.73828 h -1.88086 v 5.26465 h -0.85254 v -5.26465 h -1.92041 v -0.73828 z"
   id="text8"
   style="font-size:9px;font-family:Frutiger;-inkscape-font-specification:Frutiger;fill:#ffffff;stroke-width:0.75"
   aria-label="RIGHT" /><path
   d="m 178.9568,310.37476 v 6.00293 h -0.84375 v -3.42774 q 0.004,-0.27685 0.009,-0.59326 0.004,-0.3208 0.009,-0.59326 0.004,-0.27246 0.004,-0.44824 0.004,-0.18018 0.004,-0.54493 -0.0879,0.30323 -0.2417,0.76026 -0.15381,0.45263 -0.3208,0.89648 -0.1626,0.44385 -0.38232,1.03272 l -1.13379,2.91797 h -0.83057 l -1.13379,-2.91797 q -0.25488,-0.66797 -0.53174,-1.38868 -0.27246,-0.7207 -0.43945,-1.30078 0,0.0615 -0.009,0.0923 0,0.0396 0.009,0.13623 0.009,0.0923 0.0132,0.14941 0.009,0.0571 0.0132,0.12744 0.0659,0.55811 0.0659,1.73584 v 3.36622 h -0.85693 v -6.00293 h 1.40625 l 1.18652,3.01464 q 0.26368,0.65918 0.43067,1.11182 0.17139,0.45264 0.28125,0.90527 0.21533,-0.75146 0.7207,-2.03466 l 1.14258,-2.99707 z m 4.09571,-0.10987 q 0.90527,0 1.56445,0.3999 0.66357,0.39551 1.00635,1.10303 0.34277,0.70313 0.34277,1.6128 0,0.71191 -0.20215,1.29199 -0.19775,0.57568 -0.58008,0.98437 -0.37793,0.40869 -0.90966,0.62403 -0.53174,0.21533 -1.19532,0.21533 -0.90088,0 -1.56445,-0.3999 -0.66357,-0.4043 -1.01074,-1.11182 -0.34278,-0.71191 -0.34278,-1.604 0,-0.67237 0.19336,-1.23926 0.19336,-0.57129 0.5625,-0.98877 0.36914,-0.41748 0.91407,-0.65039 0.54931,-0.23731 1.22168,-0.23731 z m -0.009,0.67676 q -0.57569,0 -1.02832,0.30762 -0.44825,0.30322 -0.69434,0.86133 -0.2417,0.55371 -0.2417,1.26123 0,0.52295 0.14502,0.98437 0.14502,0.46143 0.41309,0.79102 0.26806,0.32519 0.62841,0.50097 0.36475,0.17139 0.8042,0.17139 0.43067,0 0.79102,-0.17578 0.36475,-0.17578 0.63281,-0.50537 0.27246,-0.32959 0.41309,-0.76026 0.14062,-0.43505 0.14062,-0.97119 0,-0.5625 -0.14062,-1.01074 -0.14063,-0.45264 -0.41309,-0.78223 -0.26806,-0.32959 -0.63721,-0.50097 -0.36914,-0.17139 -0.81298,-0.17139 z m 8.92968,-0.56689 v 6.00293 h -1.10742 l -1.89844,-3.25635 q -0.49218,-0.87012 -0.68115,-1.23047 -0.18457,-0.36475 -0.32959,-0.83057 0.0747,0.98877 0.0747,2.26758 v 3.04981 h -0.85693 v -6.00293 h 1.16894 l 2.04346,3.53759 q 0.61963,1.07666 0.83056,1.71827 -0.0571,-0.60206 -0.0659,-0.8086 -0.009,-0.35156 -0.0176,-0.69433 -0.004,-0.34278 -0.009,-0.43067 0,-0.0879 0,-0.43506 v -2.8872 z m 4.09571,-0.10987 q 0.90527,0 1.56445,0.3999 0.66357,0.39551 1.00635,1.10303 0.34277,0.70313 0.34277,1.6128 0,0.71191 -0.20215,1.29199 -0.19775,0.57568 -0.58008,0.98437 -0.37792,0.40869 -0.90966,0.62403 -0.53174,0.21533 -1.19532,0.21533 -0.90087,0 -1.56445,-0.3999 -0.66357,-0.4043 -1.01074,-1.11182 -0.34277,-0.71191 -0.34277,-1.604 0,-0.67237 0.19335,-1.23926 0.19336,-0.57129 0.5625,-0.98877 0.36915,-0.41748 0.91407,-0.65039 0.54931,-0.23731 1.22168,-0.23731 z m -0.009,0.67676 q -0.57569,0 -1.02832,0.30762 -0.44824,0.30322 -0.69434,0.86133 -0.2417,0.55371 -0.2417,1.26123 0,0.52295 0.14502,0.98437 0.14502,0.46143 0.41309,0.79102 0.26806,0.32519 0.62842,0.50097 0.36474,0.17139 0.8042,0.17139 0.43066,0 0.79101,-0.17578 0.36475,-0.17578 0.63281,-0.50537 0.27246,-0.32959 0.41309,-0.76026 0.14062,-0.43505 0.14062,-0.97119 0,-0.5625 -0.14062,-1.01074 -0.14063,-0.45264 -0.41309,-0.78223 -0.26806,-0.32959 -0.6372,-0.50097 -0.36914,-0.17139 -0.81299,-0.17139 z"
   id="text9"
   style="font-size:9px;font-family:Frutiger;-inkscape-font-specification:Frutiger;fill:#ffffff;stroke-width:0.75"
   aria-label="MONO" /><path
   d="m 139.49043,172.48462 -0.10547,0.75586 q -0.6416,-0.2461 -1.125,-0.2461 -0.32519,0 -0.57129,0.10547 -0.24169,0.10108 -0.37792,0.29004 -0.13184,0.18457 -0.13184,0.43506 0,0.39111 0.27246,0.59766 0.27686,0.20654 0.9668,0.56689 0.69433,0.35596 1.0415,0.7251 0.34717,0.36475 0.34717,0.97119 0,0.52734 -0.25488,0.94483 -0.25489,0.41748 -0.7251,0.6416 -0.46582,0.22412 -1.07227,0.22412 -0.71631,0 -1.3667,-0.23731 l 0.0879,-0.80859 q 0.66358,0.31641 1.17774,0.31641 0.36474,0 0.64599,-0.12305 0.28565,-0.12305 0.43506,-0.35156 0.15381,-0.23291 0.15381,-0.54493 0,-0.44824 -0.30322,-0.67675 -0.30322,-0.23291 -0.9624,-0.54932 -0.65918,-0.31641 -0.99756,-0.65478 -0.33838,-0.34278 -0.33838,-0.96241 0,-0.4834 0.23291,-0.85254 0.2373,-0.37353 0.66797,-0.58007 0.43506,-0.20655 0.98877,-0.20655 0.69873,0 1.31396,0.21973 z m 2.35987,-0.10986 v 6.00293 h -0.85694 v -6.00293 z m 6.40722,0 v 6.00293 h -1.10742 l -1.89844,-3.25635 q -0.49218,-0.87012 -0.68115,-1.23047 -0.18457,-0.36475 -0.32959,-0.83057 0.0747,0.98877 0.0747,2.26758 v 3.04981 h -0.85694 v -6.00293 h 1.16895 l 2.04346,3.53759 q 0.61963,1.07666 0.83056,1.71827 -0.0571,-0.60206 -0.0659,-0.8086 -0.009,-0.35156 -0.0176,-0.69433 -0.004,-0.34278 -0.009,-0.43067 0,-0.0879 0,-0.43506 v -2.8872 z m 4.88672,0 v 0.73828 h -2.48291 v 1.7622 h 2.30274 v 0.73829 h -2.30274 v 2.03466 h 2.55322 v 0.7295 h -3.41015 v -6.00293 z m 10.49854,0 v 6.00293 h -0.84375 v -3.42774 q 0.004,-0.27685 0.009,-0.59326 0.004,-0.3208 0.009,-0.59326 0.004,-0.27246 0.004,-0.44824 0.004,-0.18018 0.004,-0.54493 -0.0879,0.30323 -0.2417,0.76026 -0.1538,0.45263 -0.3208,0.89648 -0.16259,0.44385 -0.38232,1.03272 l -1.13379,2.91797 h -0.83057 l -1.13379,-2.91797 q -0.25488,-0.66797 -0.53173,-1.38868 -0.27246,-0.7207 -0.43946,-1.30078 0,0.0615 -0.009,0.0923 0,0.0395 0.009,0.13623 0.009,0.0923 0.0132,0.14941 0.009,0.0571 0.0132,0.12744 0.0659,0.55811 0.0659,1.73584 v 3.36622 h -0.85693 v -6.00293 h 1.40625 l 1.18652,3.01464 q 0.26367,0.65918 0.43066,1.11182 0.17139,0.45264 0.28125,0.90527 0.21533,-0.75146 0.72071,-2.03466 l 1.14257,-2.99707 z m 4.0957,-0.10987 q 0.90527,0 1.56445,0.3999 0.66358,0.39551 1.00635,1.10303 0.34277,0.70313 0.34277,1.6128 0,0.71191 -0.20214,1.29199 -0.19776,0.57568 -0.58008,0.98437 -0.37793,0.40869 -0.90967,0.62403 -0.53174,0.21533 -1.19531,0.21533 -0.90088,0 -1.56446,-0.3999 -0.66357,-0.4043 -1.01074,-1.11182 -0.34277,-0.71191 -0.34277,-1.604 0,-0.67237 0.19336,-1.23926 0.19336,-0.57129 0.5625,-0.98877 0.36914,-0.41748 0.91406,-0.65039 0.54932,-0.23731 1.22168,-0.23731 z m -0.009,0.67676 q -0.57568,0 -1.02832,0.30762 -0.44824,0.30322 -0.69434,0.86133 -0.24169,0.55371 -0.24169,1.26123 0,0.52295 0.14501,0.98437 0.14502,0.46143 0.41309,0.79102 0.26807,0.32519 0.62842,0.50097 0.36474,0.17139 0.8042,0.17139 0.43066,0 0.79101,-0.17578 0.36475,-0.17578 0.63282,-0.50537 0.27246,-0.32959 0.41308,-0.76026 0.14063,-0.43505 0.14063,-0.97119 0,-0.5625 -0.14063,-1.01074 -0.14062,-0.45264 -0.41308,-0.78223 -0.26807,-0.32959 -0.63721,-0.50097 -0.36914,-0.17139 -0.81299,-0.17139 z m 4.13086,-0.56689 h 1.24365 q 0.63721,0 1.00635,0.0439 0.60205,0.0571 1.12061,0.31201 0.51855,0.25049 0.87451,0.6416 0.36035,0.39112 0.55371,0.90528 0.19775,0.50976 0.19775,1.1206 0,0.4878 -0.14502,0.93604 -0.14062,0.44824 -0.3999,0.80859 -0.25928,0.35596 -0.63281,0.62403 -0.37354,0.26367 -0.83057,0.41308 -0.22851,0.0791 -0.45703,0.11865 -0.22852,0.0396 -0.50537,0.0615 -0.27246,0.0176 -0.65918,0.0176 h -1.3667 z m 0.85693,0.73828 v 4.53515 h 0.43946 q 0.59326,0 0.90088,-0.0439 0.30761,-0.0439 0.61962,-0.17139 0.39112,-0.17139 0.67237,-0.47461 0.28564,-0.30322 0.43506,-0.71191 0.1538,-0.40869 0.1538,-0.87451 0,-0.35596 -0.10107,-0.69434 -0.10107,-0.33838 -0.29004,-0.61523 -0.18896,-0.27686 -0.45264,-0.4834 -0.26367,-0.20655 -0.58007,-0.31201 -0.20215,-0.0791 -0.51856,-0.11426 -0.31201,-0.0395 -0.83056,-0.0395 z m 8.6836,-0.73828 v 0.73828 h -2.48291 v 1.7622 h 2.30273 v 0.73829 h -2.30273 v 2.03466 h 2.55322 v 0.7295 h -3.41016 v -6.00293 z"
   id="text10"
   style="font-size:9px;font-family:Frutiger;-inkscape-font-specification:Frutiger;fill:#ffffff;stroke-width:0.75"
   aria-label="SINE MODE" /><path
   d="m 35.970646,172.26489 q 0.905273,0 1.564453,0.3999 0.663574,0.39551 1.006348,1.10303 0.342773,0.70313 0.342773,1.6128 0,0.71191 -0.202148,1.29199 -0.197754,0.57568 -0.580078,0.98437 -0.37793,0.40869 -0.909668,0.62403 -0.531739,0.21533 -1.195313,0.21533 -0.900879,0 -1.564453,-0.3999 -0.663574,-0.4043 -1.010742,-1.11182 -0.342774,-0.71191 -0.342774,-1.604 0,-0.67237 0.19336,-1.23926 0.193359,-0.57129 0.5625,-0.98877 0.36914,-0.41748 0.914062,-0.65039 0.549317,-0.23731 1.22168,-0.23731 z m -0.0088,0.67676 q -0.575684,0 -1.02832,0.30762 -0.448243,0.30322 -0.694336,0.86133 -0.2417,0.55371 -0.2417,1.26123 0,0.52295 0.14502,0.98437 0.145019,0.46143 0.413086,0.79102 0.268066,0.32519 0.628418,0.50097 0.364746,0.17139 0.804199,0.17139 0.430664,0 0.791016,-0.17578 0.364746,-0.17578 0.632812,-0.50537 0.272461,-0.32959 0.413086,-0.76026 0.140625,-0.43505 0.140625,-0.97119 0,-0.5625 -0.140625,-1.01074 -0.140625,-0.45264 -0.413086,-0.78223 -0.268066,-0.32959 -0.637207,-0.50097 -0.369141,-0.17139 -0.812988,-0.17139 z m 6.947754,-0.45703 -0.105469,0.75586 q -0.641602,-0.2461 -1.125,-0.2461 -0.325195,0 -0.571289,0.10547 -0.241699,0.10108 -0.37793,0.29004 -0.131836,0.18457 -0.131836,0.43506 0,0.39111 0.272461,0.59766 0.276856,0.20654 0.966797,0.56689 0.694336,0.35596 1.041504,0.7251 0.347168,0.36475 0.347168,0.97119 0,0.52734 -0.254883,0.94483 -0.254883,0.41748 -0.725097,0.6416 -0.465821,0.22412 -1.072266,0.22412 -0.716309,0 -1.366699,-0.23731 l 0.08789,-0.80859 q 0.663575,0.31641 1.177735,0.31641 0.364746,0 0.645996,-0.12305 0.285644,-0.12305 0.435058,-0.35156 0.153809,-0.23291 0.153809,-0.54493 0,-0.44824 -0.303223,-0.67675 -0.303222,-0.23291 -0.962402,-0.54932 -0.65918,-0.31641 -0.997559,-0.65478 -0.338379,-0.34278 -0.338379,-0.96241 0,-0.4834 0.232911,-0.85254 0.237304,-0.37353 0.667968,-0.58007 0.435059,-0.20655 0.98877,-0.20655 0.69873,0 1.313965,0.21973 z m 5.625,0.11426 -0.07031,0.82177 q -0.338379,-0.19775 -0.619629,-0.27246 -0.28125,-0.0791 -0.632812,-0.0791 -0.496582,0 -0.914063,0.1626 -0.413086,0.1582 -0.720703,0.46143 -0.307617,0.30322 -0.474609,0.7207 -0.166992,0.41308 -0.166992,0.91406 0,0.65918 0.298828,1.19531 0.303222,0.53174 0.830566,0.83496 0.531738,0.29883 1.186524,0.29883 0.610839,0 1.283203,-0.26806 l 0.06592,0.82617 q -0.351563,0.11426 -0.641602,0.1626 -0.285644,0.0439 -0.681152,0.0439 -0.944824,0 -1.6875,-0.36475 -0.738281,-0.36474 -1.155762,-1.05908 -0.41748,-0.69873 -0.41748,-1.65234 0,-0.87012 0.395507,-1.55567 0.399903,-0.68554 1.120606,-1.06787 0.725098,-0.38232 1.634766,-0.38232 0.786621,0 1.366699,0.25928 z m 1.964355,-0.22412 v 6.00293 h -0.856933 v -6.00293 z m 2.465332,0 v 5.27343 h 2.535645 v 0.7295 h -3.392578 v -6.00293 z m 4.319824,0 v 5.27343 h 2.535645 v 0.7295 h -3.392578 v -6.00293 z m 6.011719,-0.10987 q 0.905274,0 1.564453,0.3999 0.663575,0.39551 1.006348,1.10303 0.342773,0.70313 0.342773,1.6128 0,0.71191 -0.202148,1.29199 -0.197754,0.57568 -0.580078,0.98437 -0.37793,0.40869 -0.909668,0.62403 -0.531738,0.21533 -1.195313,0.21533 -0.900879,0 -1.564453,-0.3999 -0.663574,-0.4043 -1.010742,-1.11182 -0.342773,-0.71191 -0.342773,-1.604 0,-0.67237 0.193359,-1.23926 0.193359,-0.57129 0.5625,-0.98877 0.369141,-0.41748 0.914063,-0.65039 0.549316,-0.23731 1.221679,-0.23731 z m -0.0088,0.67676 q -0.575683,0 -1.02832,0.30762 -0.448242,0.30322 -0.694336,0.86133 -0.241699,0.55371 -0.241699,1.26123 0,0.52295 0.145019,0.98437 0.14502,0.46143 0.413086,0.79102 0.268067,0.32519 0.628418,0.50097 0.364746,0.17139 0.804199,0.17139 0.430664,0 0.791016,-0.17578 0.364746,-0.17578 0.632812,-0.50537 0.272461,-0.32959 0.413086,-0.76026 0.140625,-0.43505 0.140625,-0.97119 0,-0.5625 -0.140625,-1.01074 -0.140625,-0.45264 -0.413086,-0.78223 -0.268066,-0.32959 -0.637207,-0.50097 -0.36914,-0.17139 -0.812988,-0.17139 z m 6.947754,-0.45703 -0.105469,0.75586 q -0.641601,-0.2461 -1.125,-0.2461 -0.325195,0 -0.571289,0.10547 -0.241699,0.10108 -0.377929,0.29004 -0.131836,0.18457 -0.131836,0.43506 0,0.39111 0.272461,0.59766 0.276855,0.20654 0.966796,0.56689 0.694336,0.35596 1.041504,0.7251 0.347168,0.36475 0.347168,0.97119 0,0.52734 -0.254883,0.94483 -0.254882,0.41748 -0.725097,0.6416 -0.46582,0.22412 -1.072266,0.22412 -0.716308,0 -1.366699,-0.23731 l 0.08789,-0.80859 q 0.663574,0.31641 1.177734,0.31641 0.364746,0 0.645996,-0.12305 0.285645,-0.12305 0.435059,-0.35156 0.153808,-0.23291 0.153808,-0.54493 0,-0.44824 -0.303222,-0.67675 -0.303223,-0.23291 -0.962403,-0.54932 -0.659179,-0.31641 -0.997558,-0.65478 -0.338379,-0.34278 -0.338379,-0.96241 0,-0.4834 0.23291,-0.85254 0.237305,-0.37353 0.667969,-0.58007 0.435058,-0.20655 0.988769,-0.20655 0.698731,0 1.313965,0.21973 z m 5.625,0.11426 -0.07031,0.82177 q -0.338379,-0.19775 -0.619629,-0.27246 -0.28125,-0.0791 -0.632813,-0.0791 -0.496582,0 -0.914062,0.1626 -0.413086,0.1582 -0.720703,0.46143 -0.307618,0.30322 -0.47461,0.7207 -0.166992,0.41308 -0.166992,0.91406 0,0.65918 0.298828,1.19531 0.303223,0.53174 0.830566,0.83496 0.531739,0.29883 1.186524,0.29883 0.61084,0 1.283203,-0.26806 l 0.06592,0.82617 q -0.351562,0.11426 -0.641602,0.1626 -0.285644,0.0439 -0.681152,0.0439 -0.944824,0 -1.6875,-0.36475 -0.738281,-0.36474 -1.155762,-1.05908 -0.41748,-0.69873 -0.41748,-1.65234 0,-0.87012 0.395508,-1.55567 0.399902,-0.68554 1.120605,-1.06787 0.725098,-0.38232 1.634766,-0.38232 0.786621,0 1.366699,0.25928 z m 3.603516,-0.33399 q 0.905273,0 1.564453,0.3999 0.663574,0.39551 1.006347,1.10303 0.342774,0.70313 0.342774,1.6128 0,0.71191 -0.202149,1.29199 -0.197753,0.57568 -0.580078,0.98437 -0.377929,0.40869 -0.909668,0.62403 -0.531738,0.21533 -1.195312,0.21533 -0.900879,0 -1.564453,-0.3999 -0.663574,-0.4043 -1.010742,-1.11182 -0.342774,-0.71191 -0.342774,-1.604 0,-0.67237 0.193359,-1.23926 0.19336,-0.57129 0.5625,-0.98877 0.369141,-0.41748 0.914063,-0.65039 0.549316,-0.23731 1.22168,-0.23731 z m -0.0088,0.67676 q -0.575684,0 -1.028321,0.30762 -0.448242,0.30322 -0.694336,0.86133 -0.241699,0.55371 -0.241699,1.26123 0,0.52295 0.14502,0.98437 0.145019,0.46143 0.413086,0.79102 0.268066,0.32519 0.628418,0.50097 0.364746,0.17139 0.804199,0.17139 0.430664,0 0.791015,-0.17578 0.364747,-0.17578 0.632813,-0.50537 0.272461,-0.32959 0.413086,-0.76026 0.140625,-0.43505 0.140625,-0.97119 0,-0.5625 -0.140625,-1.01074 -0.140625,-0.45264 -0.413086,-0.78223 -0.268066,-0.32959 -0.637207,-0.50097 -0.369141,-0.17139 -0.812988,-0.17139 z m 4.139648,-0.56689 h 1.190918 q 0.641602,0 0.958008,0.0395 0.316406,0.0351 0.5625,0.13183 0.500976,0.18018 0.791015,0.61963 0.294434,0.43506 0.294434,1.00195 0,0.37793 -0.131836,0.70313 -0.127441,0.3208 -0.369141,0.5625 -0.237304,0.2373 -0.566894,0.36914 -0.23291,0.0879 -0.571289,0.13184 -0.338379,0.0396 -0.826172,0.0396 h -0.474609 v 2.40381 h -0.856934 z m 0.856934,0.73828 v 2.13134 h 0.46582 q 0.689941,0 1.125,-0.22412 0.435059,-0.22851 0.435059,-0.85254 0,-0.29882 -0.136231,-0.52294 -0.13623,-0.22852 -0.395508,-0.35596 -0.254883,-0.13184 -0.624023,-0.1582 -0.285645,-0.0176 -0.870117,-0.0176 z m 7.250976,-0.73828 v 0.73828 h -2.48291 v 1.7622 h 2.302734 v 0.73829 h -2.302734 v 2.03466 h 2.553223 v 0.7295 h -3.410157 v -6.00293 z"
   id="text11"
   style="font-size:9px;font-family:Frutiger;-inkscape-font-specification:Frutiger;fill:#ffffff;stroke-width:0.75"
   aria-label="OSCILLOSCOPE" /><path
   d="m 129.17354,34.374763 h 1.4414 q 0.54053,0 0.8086,0.03516 0.27246,0.03076 0.54931,0.127441 0.30323,0.101074 0.52295,0.307617 0.21973,0.202149 0.34278,0.492188 0.12304,0.290039 0.12304,0.619629 0,0.580078 -0.33837,0.944824 -0.33838,0.360352 -0.92725,0.461426 0.28564,0.13623 0.42627,0.294433 0.14062,0.153809 0.3208,0.531739 l 1.00635,2.188476 h -0.97998 L 131.696,38.575935 q -0.17578,-0.404297 -0.30762,-0.575683 -0.13183,-0.175781 -0.32519,-0.23291 -0.18897,-0.06152 -0.54053,-0.06152 h -0.49219 v 2.671875 h -0.85693 z m 0.85693,0.738282 v 1.854492 h 0.53174 q 1.52051,0 1.52051,-0.936035 0,-0.5625 -0.3999,-0.738281 -0.39551,-0.180176 -1.03272,-0.180176 z m 7.11914,-0.738282 2.60156,6.00293 h -0.96679 l -0.62842,-1.520508 h -2.91797 l -0.61963,1.520508 h -0.92724 l 2.55761,-6.00293 z m 0.70752,3.75293 -0.68994,-1.674316 q -0.20654,-0.479004 -0.30762,-0.751465 -0.10107,-0.276856 -0.18017,-0.588867 -0.0659,0.241699 -0.15821,0.483398 -0.0879,0.237305 -0.34716,0.874512 l -0.66358,1.656738 z m 6.64453,-3.75293 v 0.738282 h -1.88086 v 5.264648 h -0.85254 v -5.264648 h -1.92041 v -0.738282 z m 4.16602,0 v 0.738282 h -2.48291 v 1.762207 h 2.30273 v 0.738281 h -2.30273 v 2.034668 h 2.55322 v 0.729492 h -3.41015 v -6.00293 z"
   id="text12"
   style="font-size:9px;font-family:Frutiger;-inkscape-font-specification:Frutiger;fill:#ffffff;stroke-width:0.75"
   aria-label="RATE" /><path
   d="m 19.682327,34.374763 h 1.190918 q 0.641602,0 0.958008,0.03955 0.316406,0.03516 0.5625,0.131836 0.500977,0.180176 0.791016,0.619629 0.294433,0.435059 0.294433,1.001953 0,0.37793 -0.131836,0.703125 -0.127441,0.320801 -0.36914,0.5625 -0.237305,0.237305 -0.566895,0.369141 -0.23291,0.08789 -0.571289,0.131836 -0.338379,0.03955 -0.826172,0.03955 h -0.474609 v 2.403808 h -0.856934 z m 0.856934,0.738282 v 2.131347 h 0.46582 q 0.689942,0 1.125,-0.224121 0.435059,-0.228515 0.435059,-0.852539 0,-0.298828 -0.136231,-0.522949 -0.13623,-0.228516 -0.395508,-0.355957 -0.254882,-0.131836 -0.624023,-0.158203 -0.285644,-0.01758 -0.870117,-0.01758 z m 3.911133,-0.738282 H 25.8918 q 0.540527,0 0.808594,0.03516 0.272461,0.03076 0.549316,0.127441 0.303223,0.101074 0.522949,0.307617 0.219727,0.202149 0.342774,0.492188 0.123047,0.290039 0.123047,0.619629 0,0.580078 -0.338379,0.944824 -0.338379,0.360352 -0.927246,0.461426 0.285644,0.13623 0.426269,0.294433 0.140625,0.153809 0.320801,0.531739 l 1.006348,2.188476 h -0.979981 l -0.773437,-1.801758 q -0.175782,-0.404297 -0.307618,-0.575683 -0.131836,-0.175781 -0.325195,-0.23291 -0.188965,-0.06152 -0.540527,-0.06152 h -0.492188 v 2.671875 h -0.856933 z m 0.856933,0.738282 v 1.854492 h 0.531739 q 1.520507,0 1.520507,-0.936035 0,-0.5625 -0.399902,-0.738281 -0.395508,-0.180176 -1.032715,-0.180176 z M 32.246292,34.2649 q 0.905274,0 1.564453,0.399903 0.663574,0.395507 1.006348,1.103027 0.342773,0.703125 0.342773,1.612793 0,0.711914 -0.202148,1.291992 -0.197754,0.575684 -0.580078,0.984375 -0.37793,0.408691 -0.909668,0.624023 -0.531738,0.215333 -1.195313,0.215333 -0.900879,0 -1.564453,-0.399903 -0.663574,-0.404297 -1.010742,-1.111816 -0.342773,-0.711914 -0.342773,-1.604004 0,-0.672363 0.193359,-1.239258 0.193359,-0.571289 0.5625,-0.988769 0.369141,-0.417481 0.914062,-0.650391 0.549317,-0.237305 1.22168,-0.237305 z m -0.0088,0.676758 q -0.575684,0 -1.02832,0.307617 -0.448242,0.303223 -0.694336,0.861328 -0.241699,0.553711 -0.241699,1.261231 0,0.522949 0.145019,0.984375 0.14502,0.461426 0.413086,0.791015 0.268066,0.325196 0.628418,0.500977 0.364746,0.171387 0.804199,0.171387 0.430664,0 0.791016,-0.175782 0.364746,-0.175781 0.632812,-0.505371 0.272461,-0.329589 0.413086,-0.760254 0.140625,-0.435058 0.140625,-0.971191 0,-0.5625 -0.140625,-1.010742 -0.140625,-0.452637 -0.413086,-0.782227 -0.268066,-0.32959 -0.637207,-0.500976 -0.36914,-0.171387 -0.812988,-0.171387 z m 8.705566,-0.316406 -0.05713,0.830566 q -0.360352,-0.202148 -0.720704,-0.294433 -0.360351,-0.09229 -0.808593,-0.09229 -0.711914,0 -1.261231,0.290039 -0.549316,0.285645 -0.852539,0.808594 -0.298828,0.522949 -0.298828,1.177735 0,0.685546 0.303223,1.226074 0.307617,0.536133 0.865722,0.830566 0.558106,0.290039 1.278809,0.290039 0.37793,0 0.812988,-0.123047 v -1.740234 h -1.287597 v -0.725098 h 2.140136 v 3.041016 q -0.452636,0.149414 -0.861328,0.215332 -0.404297,0.06152 -0.856933,0.06152 -0.751465,0 -1.362305,-0.210937 -0.61084,-0.210938 -1.054688,-0.619629 -0.443847,-0.408691 -0.672363,-0.975586 -0.224121,-0.566894 -0.224121,-1.278808 0,-0.936036 0.430664,-1.612793 0.435059,-0.681153 1.177734,-1.032715 0.747071,-0.351563 1.669922,-0.351563 0.896485,0 1.63916,0.285645 z m 1.608399,-0.250489 h 1.441406 q 0.540527,0 0.808594,0.03516 0.272461,0.03076 0.549316,0.127441 0.303223,0.101074 0.52295,0.307617 0.219726,0.202149 0.342773,0.492188 0.123047,0.290039 0.123047,0.619629 0,0.580078 -0.338379,0.944824 -0.338379,0.360352 -0.927246,0.461426 0.285644,0.13623 0.426269,0.294433 0.140625,0.153809 0.320801,0.531739 l 1.006348,2.188476 h -0.979981 l -0.773437,-1.801758 q -0.175781,-0.404297 -0.307617,-0.575683 -0.131836,-0.175781 -0.325196,-0.23291 -0.188965,-0.06152 -0.540527,-0.06152 h -0.492188 v 2.671875 h -0.856933 z m 0.856933,0.738282 v 1.854492 h 0.531739 q 1.520508,0 1.520508,-0.936035 0,-0.5625 -0.399903,-0.738281 -0.395508,-0.180176 -1.032715,-0.180176 z m 7.119141,-0.738282 2.601563,6.00293 H 52.162308 L 51.53389,38.857185 h -2.917969 l -0.619629,1.520508 h -0.927246 l 2.557617,-6.00293 z m 0.70752,3.75293 -0.689942,-1.674316 q -0.206543,-0.479004 -0.307617,-0.751465 -0.101074,-0.276856 -0.180176,-0.588867 -0.06592,0.241699 -0.158203,0.483398 -0.08789,0.237305 -0.347168,0.874512 l -0.663574,1.656738 z m 9.307617,-3.75293 v 6.00293 h -0.84375 v -3.427734 q 0.0044,-0.276856 0.0088,-0.593262 0.0044,-0.320801 0.0088,-0.593262 0.0044,-0.272461 0.0044,-0.448242 0.0044,-0.180176 0.0044,-0.544922 -0.08789,0.303223 -0.241699,0.760254 -0.153809,0.452637 -0.320801,0.896485 -0.162598,0.443847 -0.382324,1.032714 l -1.133789,2.917969 h -0.830567 l -1.133789,-2.917969 q -0.254883,-0.667968 -0.531738,-1.388671 -0.272461,-0.720704 -0.439453,-1.300782 0,0.06152 -0.0088,0.09228 0,0.03955 0.0088,0.136231 0.0088,0.09228 0.01318,0.149414 0.0088,0.05713 0.01318,0.127441 0.06592,0.558106 0.06592,1.73584 v 3.366211 h -0.856934 v -6.00293 h 1.40625 l 1.186524,3.014649 q 0.263672,0.65918 0.430664,1.111816 0.171387,0.452637 0.28125,0.905274 0.215332,-0.751465 0.720703,-2.034668 l 1.142578,-2.997071 z"
   id="text13"
   style="font-size:9px;font-family:Frutiger;-inkscape-font-specification:Frutiger;fill:#ffffff;stroke-width:0.75"
   aria-label="PROGRAM" /></svg>
