<?xml version="1.0" encoding="UTF-8" standalone="no"?>
<!-- Generator: Adobe Illustrator 25.0.0, SVG Export Plug-In . SVG Version: 6.00 Build 0)  -->

<svg
   version="1.0"
   id="svg15246"
   x="0px"
   y="0px"
   width="39.6836px"
   height="39.68359px"
   viewBox="0 0 39.6836 39.68359"
   enable-background="new 0 0 39.6836 39.68359"
   xml:space="preserve"
   sodipodi:docname="knob5.svg"
   inkscape:version="1.4.2 (f4327f4, 2025-05-13)"
   xmlns:inkscape="http://www.inkscape.org/namespaces/inkscape"
   xmlns:sodipodi="http://sodipodi.sourceforge.net/DTD/sodipodi-0.dtd"
   xmlns="http://www.w3.org/2000/svg"
   xmlns:svg="http://www.w3.org/2000/svg"
   xmlns:rdf="http://www.w3.org/1999/02/22-rdf-syntax-ns#"
   xmlns:cc="http://creativecommons.org/ns#"
   xmlns:dc="http://purl.org/dc/elements/1.1/"><metadata
     id="metadata40"><rdf:RDF><cc:Work
         rdf:about=""><dc:format>image/svg+xml</dc:format><dc:type
           rdf:resource="http://purl.org/dc/dcmitype/StillImage" /></cc:Work></rdf:RDF></metadata><defs
     id="defs38" /><sodipodi:namedview
     bordercolor="#666666"
     borderopacity="1.0"
     fit-margin-bottom="0"
     fit-margin-left="0"
     fit-margin-right="0"
     fit-margin-top="0"
     id="base"
     inkscape:current-layer="g35"
     inkscape:cx="18.151178"
     inkscape:cy="10.417198"
     inkscape:document-units="mm"
     inkscape:pageopacity="0.0"
     inkscape:pageshadow="2"
     inkscape:window-height="1316"
     inkscape:window-maximized="1"
     inkscape:window-width="2560"
     inkscape:window-x="-12"
     inkscape:window-y="-12"
     inkscape:zoom="15.839192"
     pagecolor="#ffffff"
     showgrid="false"
     units="px"
     inkscape:showpageshadow="2"
     inkscape:pagecheckerboard="0"
     inkscape:deskcolor="#d1d1d1" /><g
     id="g35"><path
       fill="#424242"
       d="M34.43681,19.84181c0-0.6795-0.04748-1.35828-0.14202-2.03119l-0.41997,0.05901   c-0.38271,0.05377-0.75137-0.19516-0.82345-0.57485c-0.21154-1.11427-0.55625-2.18063-1.02395-3.17908   c-0.15957-0.34065-0.01106-0.74719,0.32108-0.92379l0.37996-0.20203c-1.04089-1.95758-2.51421-3.65253-4.30791-4.9557   s-3.8609-2.18068-6.04436-2.56569l-0.07595,0.43075c-0.06618,0.37534-0.41376,0.6375-0.79166,0.58796   c-0.54597-0.07158-1.10119-0.11308-1.66676-0.11308c-0.56561,0-1.12085,0.04149-1.66683,0.11307   c-0.37789,0.04954-0.72548-0.21263-0.79165-0.58796l-0.07594-0.4307c-2.18341,0.38494-4.25068,1.26244-6.04432,2.56559   c-1.7937,1.30322-3.2671,2.9981-4.30794,4.95568l0.37989,0.20199c0.33214,0.1766,0.48066,0.58314,0.32109,0.92379   c-0.46768,0.99845-0.81242,2.06484-1.02398,3.17912c-0.07209,0.37969-0.44075,0.62862-0.82346,0.57484l-0.4199-0.059   c-0.09455,0.67291-0.14203,1.35168-0.14204,2.03119c-0.00001,3.78137,1.46946,7.41852,4.09622,10.13862l0.3138-0.30304   c0.27206-0.26273,0.707-0.27847,0.98315-0.02004c0.81371,0.76151,1.72267,1.42046,2.70641,1.96265   c0.33423,0.18421,0.45507,0.60638,0.28777,0.94938l-0.19043,0.39043c1.99273,0.97187,4.18096,1.47706,6.39807,1.47707   s4.40534-0.50517,6.39801-1.47703l-0.1904-0.39042c-0.16728-0.34302-0.04643-0.76518,0.2878-0.94939   c0.98372-0.54217,1.89262-1.20109,2.70635-1.96262c0.27616-0.25844,0.71111-0.24271,0.9832,0.02002l0.31383,0.30304   C32.96724,27.26032,34.4368,23.62318,34.43681,19.84181z"
       id="path3" /><path
       fill="#333333"
       d="M23.05361,1.60266l-0.43598,2.20123V4.1333c0.08862-0.37518,0.45539-0.6286,0.836-0.54394   c2.22162,0.49409,4.3211,1.43959,6.16649,2.78035c1.84546,1.34076,3.39342,3.04536,4.54979,5.00557   c0.20532,0.34796,0.0664,0.79944-0.29035,0.98907l-0.17084,0.09082c0.84356,1.58679,1.41057,3.33814,1.66679,5.19007   l0.21173-0.02979c0.39954-0.05609,0.77631,0.22656,0.81469,0.62818c0.05042,0.52661,0.07568,1.05542,0.07568,1.58472   c-0.00001,4.06311-1.48861,7.98022-4.16751,11.01311c-0.26788,0.30334-0.74072,0.31213-1.0318,0.031   c-0.04639-0.0448-0.10687-0.10321-0.15863-0.1532c-1.26471,1.30731-2.75617,2.38659-4.40858,3.19322l0.09918,0.20343   c0.17749,0.36395,0.02374,0.81281-0.34772,0.974c-2.08716,0.90539-4.34058,1.3742-6.62079,1.37419   c-2.28027-0.00001-4.53369-0.46882-6.62078-1.37423c-0.37152-0.16119-0.52527-0.61005-0.34778-0.974l0.09924-0.20343   c-1.6524-0.80665-3.14385-1.88594-4.40856-3.19325l-0.15741,0.15204c-0.29114,0.28113-0.76514,0.2735-1.03308-0.02979   c-2.67888-3.03297-4.1674-6.95009-4.16739-11.0132c0-0.52924,0.02521-1.05811,0.07563-1.58472   c0.03845-0.40161,0.41516-0.68426,0.8147-0.62811l0.21179,0.02979c0.25623-1.85199,0.82325-3.60333,1.66682-5.19012   l-0.17084-0.09082c-0.35675-0.18964-0.49566-0.64111-0.2904-0.98914c1.15644-1.96014,2.70442-3.66473,4.54982-5.00548   c1.84546-1.34081,3.94495-2.28624,6.16657-2.78032c0.38055-0.08465,0.74725,0.16858,0.83594,0.54376V3.80388l-0.43591-2.20123   C7.99055,3.12459,1.42083,10.64978,1.4208,19.72577C1.42077,29.89941,9.66812,38.14681,19.84176,38.14684   s18.42105-8.24732,18.42108-18.42097C38.26287,10.64983,31.69319,3.1246,23.05361,1.60266z"
       id="path23" /><rect
       x="17.066"
       y="4.6367"
       fill="#DB1255"
       width="5.55161"
       height="9.97181"
       id="rect27"
       style="fill:#ff00ff;fill-opacity:1" /><path
       opacity="0.58"
       fill="#E3195A"
       d="M23.12481,1.20021c0.02866-0.14547-0.01064-0.29714-0.10891-0.41636   c-0.09417-0.11448-0.23093-0.1874-0.38488-0.20563c-0.91962-0.10792-1.85808-0.16298-2.78917-0.16298   c-0.9315,0-1.86995,0.05505-2.78876,0.16296c-0.15436,0.01823-0.29112,0.09115-0.38529,0.20562   c-0.09786,0.11885-0.13758,0.27089-0.10892,0.41636l0.50715,2.56094l0-0.00511l5.55161,0.00002v0.0051L23.12481,1.20021z"
       id="path29"
       style="fill:#ffffff;fill-opacity:1" /><path
       opacity="0.4"
       d="M5.80412,12.36427c-0.35675-0.18964-0.49566-0.64111-0.2904-0.98914   c1.15644-1.96014,2.70442-3.66473,4.54982-5.00548c1.84546-1.34081,3.94495-2.28624,6.16657-2.78032   c0.38055-0.08465,0.74725,0.16858,0.83594,0.54376l0,1.39227c-2.0932,0.40594-4.07642,1.25432-5.80299,2.50877   c-1.7937,1.30322-3.2671,2.9981-4.30794,4.95568L5.80412,12.36427z M5.38809,17.81697   c-0.09387,0.67078-0.14136,1.34741-0.14136,2.02478c-0.00001,3.78137,1.46946,7.41852,4.09622,10.13862l-0.93646,0.89087   c-0.29114,0.28113-0.76514,0.2735-1.03308-0.02979c-2.67888-3.03297-4.1674-6.95009-4.16739-11.0132   c0-0.52924,0.02521-1.05811,0.07563-1.58472c0.03845-0.40161,0.41516-0.68426,0.8147-0.62811L5.38809,17.81697z M26.23973,32.95979   c-1.99268,0.97186-4.18091,1.47704-6.39802,1.47703c-2.21613-0.00001-4.40326-0.50489-6.39538-1.47597l-0.57312,1.15503   c-0.17749,0.36395-0.02374,0.81281,0.34778,0.974c2.0871,0.9054,4.34051,1.37422,6.62078,1.37423   c2.28021,0.00001,4.53363-0.4688,6.62079-1.37419c0.37146-0.16119,0.52521-0.61004,0.34772-0.974l-0.57049-1.15613   c-0.00085,0.00043-0.00177,0.00067-0.00262,0.0011 M32.72844,12.9899c-1.04089-1.95758-2.51421-3.65253-4.30791-4.9557   c-1.72656-1.2544-3.70971-2.10279-5.80291-2.50881l0-1.39209c0.08862-0.37518,0.45539-0.6286,0.836-0.54394   c2.22162,0.49409,4.3211,1.43959,6.16649,2.78035c1.84546,1.34076,3.39342,3.04536,4.54979,5.00557   c0.20532,0.34796,0.0664,0.79944-0.29035,0.98907L32.72844,12.9899z M34.2955,17.81699 M30.34051,29.98043   c2.62672-2.72009,4.09627-6.35723,4.09628-10.1386c0-0.6795-0.04748-1.35828-0.14202-2.03119l1.29248-0.19519   c0.39954-0.05609,0.77631,0.22656,0.81469,0.62818c0.05042,0.52661,0.07568,1.05542,0.07568,1.58472   c-0.00001,4.06311-1.48861,7.98022-4.16751,11.01311c-0.26788,0.30334-0.74072,0.31213-1.0318,0.031L30.34051,29.98043z"
       id="path31"
       style="fill:#ffffff" /><rect
       x="17.06602"
       y="3.76114"
       opacity="0.58"
       fill="#EB5E8B"
       width="5.55161"
       height="0.87556"
       id="rect33"
       style="fill:#800080;fill-opacity:1" /></g></svg>
